<svg width="2244" height="2244" viewBox="0 0 2244 2244" fill="none"
    xmlns="http://www.w3.org/2000/svg">
    <path d="M1119.79 493.44L1122.25 495.878L1124.71 493.44L1614.66 8.39006V419.568L1122.25 906.563L629.836 419.568V8.39006L1119.79 493.44Z" stroke="#F8F8F8" stroke-width="7"/>
    <path d="M493.44 1124.71L495.878 1122.25L493.44 1119.79L8.39006 629.836H419.568L906.563 1122.25L419.568 1614.66H8.39006L493.44 1124.71Z" stroke="#F8F8F8" stroke-width="7"/>
    <path d="M1751.06 1119.79L1748.61 1122.26L1751.07 1124.72L2235.56 1609.7H1824.92L1337.45 1122.24L1824.93 629.836H2235.62L1751.06 1119.79Z" stroke="#F8F8F8" stroke-width="7"/>
    <path d="M1124.71 1751.05L1122.25 1748.62L1119.79 1751.05L629.836 2235.62V1824.93L1122.25 1337.44L1614.66 1824.93V2235.62L1124.71 1751.05Z" stroke="#F8F8F8" stroke-width="7"/>
</svg>
