<svg width="1000" height="628" viewBox="0 0 1000 628" fill="none" xmlns="http://www.w3.org/2000/svg">
<path d="M0 5.00002C0 2.23859 2.23858 0 5 0H995C997.761 0 1000 2.23858 1000 5V623C1000 625.761 997.761 628 995 628H5C2.23857 628 0 625.761 0 623V5.00002Z" fill="#3B5998"/>
<path d="M948 145H52V482H948V145Z" fill="#3B5998"/>
<path fill-rule="evenodd" clip-rule="evenodd" d="M536.648 289.367C525.576 288.185 515.997 291.541 507.899 301.284V241.53L478.577 245.082V383.387H507.899V375.178C511.853 378.002 515.7 381.402 520.2 383.013C537.285 389.14 559.813 384.145 567.695 361.283C572.754 346.617 572.623 331.58 568.813 316.749C564.589 300.273 553.629 291.177 536.648 289.367V289.367ZM541.031 349.266C539.741 358.385 532.485 363.164 523.872 362.493C521.72 362.325 519.773 361.883 518.024 361.199C511.082 357.212 508.984 350.536 508.374 346.344C508.367 346.347 508.36 346.347 508.36 346.351C507.885 339.864 507.373 326.299 510.536 319.89C513.221 314.976 517.907 312.3 524.121 312.095C532.95 311.805 539.629 316.186 540.943 325.15C542.109 333.049 542.163 341.373 541.031 349.266Z" fill="white"/>
<path fill-rule="evenodd" clip-rule="evenodd" d="M640.564 291.076C630.375 288.35 620.084 288.383 609.918 291.093C594.693 295.147 584.49 304.785 581.202 320.115C579.407 328.48 579.05 337.373 579.525 345.95C580.61 365.57 592.736 379.545 611.559 383.886C611.821 383.95 612.098 383.997 612.367 384.058H612.36C612.36 384.058 612.414 384.068 612.498 384.085C613.223 384.23 613.947 384.364 614.675 384.476C614.917 384.496 615.166 384.516 615.405 384.54H615.426C616.339 384.708 617.433 384.833 618.585 384.924C622.27 385.315 626.959 385.594 630.873 385.133C630.9 385.133 630.914 385.126 630.934 385.123C631.133 385.119 631.335 385.119 631.533 385.106C650.969 384.095 665.716 371.835 670.021 353.027C672.382 342.711 672.382 332.345 670.099 322.023C666.525 305.82 656.702 295.396 640.564 291.076V291.076ZM641.804 347.78C641.706 348.39 641.605 348.993 641.467 349.593C639.52 358.247 633.238 362.931 624.861 362.54C615.853 362.129 609.676 356.862 608.807 347.857C608.18 341.279 608.13 334.563 608.675 327.981C609.531 317.591 616.025 311.909 625.767 312.101C633.773 312.256 639.476 316.796 641.511 324.496C643.357 332.244 641.986 346.017 641.804 347.78V347.78Z" fill="white"/>
<path fill-rule="evenodd" clip-rule="evenodd" d="M200.392 290.591H179.464V276.666C180.994 263.503 202.727 266.003 202.727 266.003L202.733 265.103L202.727 265.002V243.38H202.723V243.377H202.707C201.959 243.198 159.476 233.112 151.038 265.461C151.038 265.467 151.038 265.477 151.028 265.484C151.011 265.555 150.991 265.626 150.974 265.697C149.647 269.741 149.738 288.262 149.755 290.591H131.616V315.357H150.88V382.723H178.932V315.357H200.389L202.804 290.591H200.392V290.591Z" fill="white"/>
<path fill-rule="evenodd" clip-rule="evenodd" d="M267.293 302.44C266.949 302.059 266.609 301.692 266.316 301.385V301.381C266.269 301.334 266.232 301.294 266.184 301.247C265.777 300.822 265.491 300.539 265.491 300.539C258.885 293.819 256.392 292.148 251.219 290.621C231.321 284.757 211.949 295.181 205.816 315.209C202.046 327.516 201.992 340.184 204.202 352.646C208.975 379.636 229.041 388.675 250.427 384.219C256.989 382.851 261.866 378.763 266.39 373.071C266.39 373.071 266.797 372.573 267.296 371.602V383.478H294.661V290.695H267.296V302.44H267.293ZM264.884 349.131C263.968 357.711 257.029 362.864 248.827 362.54C240.423 362.213 234.861 357.711 233.046 349.643C230.87 338.165 233.416 324.527 233.632 323.421C235.828 315.717 241.43 311.906 249.649 312.098C257.72 312.28 263.941 317.059 264.851 325.423C265.703 333.248 265.723 341.303 264.884 349.131V349.131Z" fill="white"/>
<path fill-rule="evenodd" clip-rule="evenodd" d="M378.238 376.829C376.968 372.182 375.523 367.599 374.125 363.17L372.805 358.247C372.805 358.247 338.508 374.719 333.159 343.419C332.664 338.253 332.815 332.921 333.526 327.823C334.86 318.201 340.728 313.048 350.062 312.166C353.214 311.866 356.495 312.017 359.618 312.546C363.869 313.264 368.019 314.545 372.67 315.694C374.287 310.743 375.941 305.847 377.48 300.916C377.723 300.145 377.925 299.477 378.083 298.881H378.087L378.858 295.919C378.666 295.524 378.198 295.117 377.571 294.719V294.722C376.783 294.062 375.439 293.513 373.341 292.744C372.502 292.438 371.66 292.165 370.818 291.902C370.063 291.662 369.571 291.521 369.571 291.521H369.575C360.564 288.943 351.315 288.744 341.917 289.735C322.11 291.828 308.667 303.521 304.938 322.825C302.981 332.982 303.072 343.264 305.319 353.451C308.684 368.707 317.927 378.565 332.953 382.973C342.759 385.847 352.807 385.992 362.804 384.432C367.008 383.775 373.038 381.594 377.366 380.041L379.013 379.461L378.235 376.822L378.238 376.829V376.829Z" fill="white"/>
<path fill-rule="evenodd" clip-rule="evenodd" d="M468.539 340.531C468.408 334.108 468.495 327.654 467.586 321.342C465.083 304.034 454.55 293.081 437.516 290.22C431.015 289.132 424.14 289.276 417.534 289.907C399.456 291.632 385.733 302.898 382.92 319.852C381.213 330.138 380.994 341.053 382.375 351.382C384.46 366.921 392.022 376.819 405.105 381.571H405.112C405.169 381.574 405.226 381.584 405.283 381.591C405.277 381.598 405.28 381.598 405.277 381.601C411.249 383.387 440.477 391.034 466.242 378.083L465.208 374.288C465.197 374.295 465.181 374.295 465.171 374.295C463.978 369.233 462.543 364.225 461.192 359.207L461.048 358.715C461.048 358.715 460.512 358.907 459.562 359.211C459.542 359.214 459.515 359.214 459.495 359.217C458.37 359.511 457.258 359.854 456.153 360.225C455.948 360.292 455.746 360.356 455.54 360.417C451.64 361.516 446.065 362.871 440.177 363.629C435.235 364.128 430.243 364.148 425.204 363.716C417.022 362.362 410.76 357.977 411.06 347.611H415.736C431.776 347.611 447.813 347.611 463.857 347.608C464.237 347.608 464.625 347.611 465.005 347.604L465.002 347.611C465.002 347.611 468.448 347.567 468.593 347.534C468.593 347.534 468.589 346.624 468.593 346.513L468.539 340.531V340.531ZM442.164 327.88H410.481C410.646 321.575 411.434 315.714 417.036 312.145C422.984 308.364 429.556 308.223 435.673 311.613C441.858 315.03 442.343 321.204 442.164 327.88Z" fill="white"/>
<path fill-rule="evenodd" clip-rule="evenodd" d="M868.37 291.662H837.28L810.265 333.915V245.75V245.17V241.615L780.926 245.17V383.478H810.265V341.151L837.28 383.539H868.37L839.065 337.525L868.37 291.662Z" fill="white"/>
<path fill-rule="evenodd" clip-rule="evenodd" d="M740.573 291.063C730.383 288.333 720.086 288.367 709.92 291.076C694.701 295.133 684.498 304.768 681.211 320.095C679.415 328.463 679.058 337.353 679.533 345.933C680.611 365.553 692.744 379.532 711.56 383.869C711.83 383.933 712.106 383.98 712.376 384.041H712.369C712.369 384.041 712.416 384.051 712.5 384.068C713.224 384.213 713.955 384.347 714.683 384.455C714.925 384.479 715.171 384.502 715.414 384.516C715.421 384.523 715.427 384.523 715.434 384.523C716.354 384.691 717.442 384.819 718.587 384.91C722.279 385.301 726.974 385.581 730.882 385.119C730.902 385.112 730.915 385.112 730.942 385.106C731.148 385.102 731.343 385.102 731.535 385.092C750.974 384.078 765.725 371.814 770.029 353.013C772.391 342.698 772.391 332.328 770.114 322.006C766.526 305.803 756.711 295.379 740.573 291.063V291.063ZM741.809 347.763C741.711 348.376 741.61 348.976 741.472 349.579C739.518 358.233 733.243 362.911 724.866 362.527C715.858 362.105 709.681 356.842 708.812 347.84C708.185 341.265 708.128 334.549 708.674 327.967C709.543 317.574 716.03 311.893 725.778 312.085C733.772 312.24 739.481 316.779 741.516 324.479C743.355 332.224 741.994 346.004 741.809 347.763Z" fill="white"/>
</svg>
