<svg width="989" height="251" viewBox="0 0 989 251" fill="none" xmlns="http://www.w3.org/2000/svg">
<path d="M367.85 188.95H345.5V84.4H367.85V94.3C368.95 91 371.55 88.3 375.65 86.2C379.85 84.1 384.75 83.05 390.35 83.05C401.15 83.05 410.05 86.85 417.05 94.45C424.25 101.95 427.85 111.2 427.85 122.2C427.85 133.2 424.25 142.5 417.05 150.1C409.95 157.6 401.05 161.35 390.35 161.35C384.75 161.35 379.85 160.3 375.65 158.2C371.55 156.1 368.95 153.4 367.85 150.1V188.95ZM386.3 141.1C391.7 141.1 396.25 139.3 399.95 135.7C403.65 132 405.5 127.5 405.5 122.2C405.5 116.9 403.65 112.45 399.95 108.85C396.25 105.15 391.7 103.3 386.3 103.3C380.7 103.3 376 105.15 372.2 108.85C368.4 112.45 366.5 116.9 366.5 122.2C366.5 127.4 368.4 131.9 372.2 135.7C376.1 139.3 380.8 141.1 386.3 141.1ZM478.096 82.15C489.696 82.15 499.596 86.05 507.796 93.85C515.996 101.45 520.096 110.9 520.096 122.2C520.096 133.4 515.996 142.9 507.796 150.7C499.496 158.4 489.596 162.25 478.096 162.25C466.496 162.25 456.546 158.4 448.246 150.7C440.146 142.9 436.096 133.4 436.096 122.2C436.096 111 440.146 101.55 448.246 93.85C456.546 86.05 466.496 82.15 478.096 82.15ZM458.446 122.2C458.446 127.8 460.346 132.5 464.146 136.3C467.946 140.1 472.596 142 478.096 142C483.596 142 488.246 140.1 492.046 136.3C495.846 132.3 497.746 127.6 497.746 122.2C497.746 116.7 495.846 112.05 492.046 108.25C488.346 104.35 483.696 102.4 478.096 102.4C472.496 102.4 467.846 104.35 464.146 108.25C460.346 112.05 458.446 116.7 458.446 122.2ZM531.378 135.4V55.45H553.728V131.95C553.728 135.35 554.378 137.85 555.678 139.45C557.078 140.95 559.328 141.7 562.428 141.7C564.728 141.7 566.528 141.5 567.828 141.1V160.9C565.428 161.6 561.878 161.95 557.178 161.95C539.978 161.95 531.378 153.1 531.378 135.4ZM582.945 191.5V172.15C585.545 172.95 588.595 173.35 592.095 173.35C594.795 173.35 596.945 172.8 598.545 171.7C600.045 170.6 601.095 169 601.695 166.9L602.895 163.6L570.645 84.4H593.445L613.995 136.9L632.595 84.4H655.395L621.795 172C619.195 178.5 616.295 183.15 613.095 185.95C608.095 190.35 601.345 192.55 592.845 192.55C589.145 192.55 585.845 192.2 582.945 191.5ZM698.402 82C710.902 82 721.402 86.7 729.902 96.1L715.802 110.05C710.902 104.85 705.102 102.25 698.402 102.25C692.902 102.25 688.302 104.15 684.602 107.95C680.902 111.65 679.052 116.35 679.052 122.05C679.052 127.75 680.902 132.45 684.602 136.15C688.402 139.85 693.002 141.7 698.402 141.7C705.102 141.7 710.902 139.1 715.802 133.9L729.902 147.85C721.402 157.25 710.902 161.95 698.402 161.95C686.602 161.95 676.702 158.15 668.702 150.55C660.702 142.85 656.702 133.35 656.702 122.05C656.702 110.75 660.702 101.25 668.702 93.55C676.902 85.85 686.802 82 698.402 82ZM734.632 122.2C734.632 111.3 738.182 102.05 745.282 94.45C752.482 86.85 761.432 83.05 772.132 83.05C777.732 83.05 782.582 84.1 786.682 86.2C790.882 88.3 793.532 91 794.632 94.3V84.4H816.982V133.45C816.982 136.45 817.382 138.6 818.182 139.9C819.082 141.2 820.532 141.85 822.532 141.85C823.232 141.85 824.482 141.75 826.282 141.55V160.15C823.682 160.95 820.332 161.35 816.232 161.35C811.232 161.35 807.132 160.45 803.932 158.65C800.532 156.35 798.282 153.65 797.182 150.55C792.282 157.85 783.932 161.5 772.132 161.5C761.432 161.5 752.482 157.75 745.282 150.25C738.182 142.55 734.632 133.2 734.632 122.2ZM776.182 141.1C781.682 141.1 786.332 139.3 790.132 135.7C794.032 131.9 795.982 127.4 795.982 122.2C795.982 116.9 794.032 112.45 790.132 108.85C786.432 105.15 781.782 103.3 776.182 103.3C770.782 103.3 766.232 105.15 762.532 108.85C758.832 112.45 756.982 116.9 756.982 122.2C756.982 127.5 758.832 132 762.532 135.7C766.332 139.3 770.882 141.1 776.182 141.1ZM830.373 148.6L843.273 134.8C847.973 140.3 854.873 143.05 863.973 143.05C871.573 143.05 875.373 141 875.373 136.9C875.373 135.4 874.523 134.2 872.823 133.3C871.023 132.3 867.973 131.3 863.673 130.3C859.973 129.4 856.573 128.45 853.473 127.45C841.873 123.35 836.073 116.35 836.073 106.45C836.073 98.75 838.923 92.8 844.623 88.6C850.223 84.3 857.173 82.15 865.473 82.15C875.973 82.15 884.623 85.4 891.423 91.9L880.773 106.6C876.773 102.9 871.473 101.05 864.873 101.05C859.873 101.05 857.373 102.65 857.373 105.85C857.373 107.65 858.423 109 860.523 109.9C861.323 110.2 863.673 110.9 867.573 112C871.473 113 874.973 114.05 878.073 115.15C890.473 119.35 896.673 126.5 896.673 136.6C896.673 144.5 893.823 150.75 888.123 155.35C882.523 159.85 874.273 162.1 863.373 162.1C848.673 162.1 837.673 157.6 830.373 148.6ZM929.618 160H907.268V55.45H929.618V93.55C931.118 90.25 933.768 87.65 937.568 85.75C941.368 83.75 945.768 82.75 950.768 82.75C959.668 82.75 966.568 85.5 971.468 91C976.368 96.5 978.818 104.2 978.818 114.1V133.15C978.818 136.05 979.168 138.1 979.868 139.3C980.568 140.5 981.868 141.1 983.768 141.1C984.068 141.1 984.518 141.1 985.118 141.1L986.018 140.95V159.85C984.018 160.55 980.818 160.9 976.418 160.9C963.118 160.9 956.468 153.7 956.468 139.3V116.8C956.468 112.3 955.318 108.8 953.018 106.3C950.818 103.8 947.668 102.55 943.568 102.55C939.468 102.55 936.118 103.95 933.518 106.75C930.918 109.55 929.618 113.15 929.618 117.55V160Z" fill="#113A63"/>
<path d="M122.938 55.182L66.5916 0V47.3227L122.938 102.449L179.285 47.3227V0L122.938 55.182Z" fill="#1CEFE4"/>
<path d="M55.182 122.939L0 66.5918H47.3227L102.449 122.939L47.3227 179.286H0L55.182 122.939Z" fill="#9966FF"/>
<path d="M195.874 123.222L251 179.286H203.733L148.551 123.222L203.733 66.5918H251L195.874 123.222Z" fill="#9966FF"/>
<path d="M122.938 195.874L179.285 251V203.733L122.938 148.551L66.5916 203.733V251L122.938 195.874Z" fill="#1CEFE4"/>
</svg>
