<svg width="214" height="198" viewBox="0 0 214 198" fill="none" xmlns="http://www.w3.org/2000/svg">
<path d="M213.061 30.5495C212.141 34.8895 211.251 39.1995 210.321 43.4995C206.701 60.2395 203.074 76.9728 199.441 93.6994C199.385 94.2786 199.212 94.8401 198.931 95.3494C197.341 97.4894 197.721 99.7195 198.461 102.019C202.541 114.669 206.581 127.349 210.711 140.019C211.392 141.893 211.459 143.935 210.901 145.849C207.181 158.529 203.541 171.229 199.851 183.919C198.781 187.609 196.111 189.079 192.361 188.039C180.021 184.629 167.671 181.269 155.361 177.719C152.161 176.799 149.661 177.149 147.101 179.369C140.101 185.439 132.171 190.239 124.671 195.639C123.302 196.601 121.652 197.083 119.981 197.009C111.067 196.969 102.154 196.969 93.2408 197.009C91.4016 197.042 89.6039 196.461 88.1308 195.359C80.5408 189.809 72.4608 184.929 65.3508 178.729C63.3508 176.999 61.1608 176.729 58.6008 177.509C46.3808 181.009 34.1208 184.389 21.8708 187.819C16.8708 189.229 14.6508 188.049 13.1808 182.989C9.50079 170.389 5.87078 157.769 2.18078 145.159C1.77761 143.713 1.84414 142.176 2.37078 140.769C6.26078 128.659 10.0908 116.529 14.0208 104.439C15.0808 101.159 15.7908 98.2794 14.1908 94.6594C12.3708 90.5594 11.9408 85.8395 10.9608 81.3695C7.38079 65.1395 3.84078 48.8995 0.230781 32.6695C-0.134359 31.1308 -0.0651242 29.521 0.430778 28.0195C2.99078 20.2795 5.48079 12.5294 8.02079 4.78945C9.48079 0.349447 12.1708 -0.950548 16.5008 0.669452C36.4208 8.14279 56.3374 15.6228 76.2508 23.1095C77.7263 23.6669 79.2936 23.9417 80.8708 23.9195C97.7841 23.9195 114.697 23.9195 131.611 23.9195C133.523 23.9297 135.421 23.5908 137.211 22.9195C156.964 15.4661 176.724 8.0328 196.491 0.619465C200.491 -0.890535 203.411 0.459459 204.721 4.48946C207.331 12.4895 209.891 20.4895 212.461 28.4895C212.711 29.0795 212.861 29.8095 213.061 30.5495ZM205.921 34.0195C205.741 33.4495 205.591 32.8894 205.391 32.3494C202.764 25.0761 200.117 17.8095 197.451 10.5495C196.311 7.44946 195.181 7.09946 192.451 8.95946C169.784 24.5661 147.117 40.1861 124.451 55.8194C121.821 57.6294 121.791 58.8194 124.311 60.7594C131.961 66.7594 139.661 72.7594 147.311 78.7594C148.981 80.1163 150.926 81.0954 153.011 81.6294C164.411 84.6294 175.781 87.7794 187.171 90.8494C190.751 91.8494 191.041 91.6494 191.981 88.0394C196.154 71.8928 200.311 55.7295 204.451 39.5495C204.951 37.7161 205.441 35.8694 205.921 34.0094V34.0195ZM23.7808 91.3995L24.5908 91.1694C36.9508 87.8361 49.3108 84.5028 61.6708 81.1694C62.7055 80.8726 63.6663 80.3616 64.4908 79.6694L88.4908 60.8494C91.1108 58.7894 91.0708 57.7095 88.2808 55.7795C65.6141 40.1528 42.9174 24.5294 20.1908 8.90944C17.7008 7.18944 16.5008 7.62945 15.4208 10.5694C12.8708 17.5194 10.3708 24.4795 7.76078 31.3995C7.17305 32.9532 7.10984 34.6565 7.58079 36.2495C9.41079 43.1595 11.1808 50.0894 12.9608 57.0094C15.6675 67.5561 18.3741 78.1028 21.0808 88.6495C21.4508 89.9695 21.6308 91.5495 23.7808 91.3995ZM106.451 176.959C111.121 176.959 115.791 176.909 120.451 176.959C122.511 176.959 123.391 176.219 123.111 174.129C122.711 171.129 122.391 168.189 122.041 165.209C121.868 163.818 121.213 162.531 120.19 161.572C119.167 160.613 117.841 160.042 116.441 159.959C109.701 159.913 102.954 159.913 96.2008 159.959C94.7575 160.043 93.3915 160.639 92.3484 161.64C91.3053 162.641 90.6537 163.981 90.5108 165.419C90.2808 168.159 89.9808 170.889 89.6708 173.619C89.4008 176.029 90.0608 176.889 92.4608 176.909C97.0708 176.989 101.741 176.959 106.451 176.959ZM85.9408 130.959C88.1708 130.959 89.4408 129.289 88.6208 127.419C87.1908 124.149 85.6208 120.949 84.0108 117.749C83.8867 117.457 83.7035 117.194 83.4728 116.976C83.2421 116.759 82.9688 116.591 82.6701 116.484C82.3715 116.377 82.0539 116.333 81.7373 116.354C81.4208 116.376 81.1121 116.463 80.8308 116.609C77.1708 118.179 73.5608 119.849 69.9408 121.519C69.438 121.737 69.018 122.109 68.7427 122.582C68.4673 123.056 68.3509 123.605 68.4108 124.149C68.4708 125.459 69.3308 126.029 70.4108 126.359C73.1908 127.199 75.9708 128.019 78.7608 128.849L85.9408 130.959ZM127.091 130.959C132.181 129.409 137.761 127.849 143.241 125.959C145.181 125.299 145.131 122.839 143.241 121.959C139.521 120.139 135.721 118.499 131.941 116.809C131.662 116.659 131.355 116.57 131.039 116.547C130.723 116.525 130.406 116.57 130.109 116.68C129.812 116.79 129.541 116.961 129.316 117.184C129.09 117.406 128.915 117.674 128.801 117.969C127.191 121.149 125.631 124.349 124.221 127.619C123.451 129.319 124.681 130.949 127.041 130.929L127.091 130.959Z" fill="white"/>
</svg>
