<svg width="1000" height="666" viewBox="0 0 1000 666" fill="none" xmlns="http://www.w3.org/2000/svg">
<path d="M0 24C0 21.2386 2.23858 19 5 19H995C997.761 19 1000 21.2386 1000 24V642C1000 644.761 997.761 647 995 647H5C2.23857 647 0 644.761 0 642V24Z" fill="#FF0000"/>
<path d="M499.861 175.874C499.861 175.874 359.515 175.875 324.29 185.028C305.43 190.297 289.899 205.828 284.63 224.966C275.477 260.191 275.476 333.139 275.476 333.139C275.476 333.139 275.477 406.364 284.63 441.034C289.899 460.172 305.152 475.425 324.29 480.695C359.793 490.125 499.861 490.126 499.861 490.126C499.861 490.126 640.485 490.126 675.709 480.973C694.848 475.703 710.1 460.727 715.093 441.312C724.523 406.364 724.523 333.416 724.523 333.416C724.523 333.416 724.801 260.191 715.093 224.966C710.1 205.828 694.848 190.575 675.709 185.583C640.485 175.875 499.861 175.874 499.861 175.874ZM455.205 265.741L571.976 333.139L455.205 400.259V265.741Z" fill="white"/>
</svg>
